<svg width="1000" height="1000" viewBox="0 0 1000 1000" fill="none" xmlns="http://www.w3.org/2000/svg">
<g clip-path="url(#clip0_2289_1180)">
<rect width="1000" height="1000" fill="white"/>
<path d="M142.073 377.251C122.866 373.409 105.617 383.474 97.7415 390.324C96.4468 391.45 95.2543 392.757 94.6839 394.375C93.8846 396.643 95.1911 397.091 96.7103 396.893C97.9039 396.737 98.979 396.141 100.032 395.558L100.057 395.544C106.464 391.994 116.784 386.894 116.784 389.459C116.784 392.948 103.704 436.549 101.96 442.654C100.215 448.758 103.703 456.606 108.936 452.246C112.922 448.924 115.643 434.266 116.646 425.595C116.733 424.845 117.289 424.234 118.026 424.066C136.772 419.789 147.077 411.47 149.921 407.772C156.026 399.342 163.002 381.437 142.073 377.251Z" fill="#212A31" stroke="#212A31" stroke-width="1.74407"/>
<path d="M148.457 389.73C147.759 407.868 128.982 415.891 119.68 417.635C117.936 413.275 124.912 399.322 126.656 393.218C128.051 388.335 124.912 387.114 123.168 387.114C142.004 380.835 147.876 386.242 148.457 389.73Z" fill="white"/>
<path d="M162.131 393.819C168.732 389.858 183.142 389.229 190.583 389.419C191.306 389.438 191.938 389.914 192.048 390.63C192.217 391.724 192.261 393.249 191.78 394.691C191.134 396.63 180.714 397.471 174.791 397.354C174.007 397.338 173.296 397.823 173.047 398.567L169.107 410.388H182.08C183.681 410.388 185.076 411.477 185.464 413.03C186.015 415.231 184.35 417.364 182.08 417.364H168.358C167.192 417.364 166.08 417.938 165.612 419.006C164.031 422.619 163.34 428.223 163.105 432.381C163 434.23 164.455 435.785 166.301 435.651C176.49 434.91 181.17 428.313 188.292 433.061C175.211 445.269 155.407 448.158 154.282 439.165C152.538 425.212 163.003 406.028 162.131 393.819Z" fill="#212A31" stroke="#212A31" stroke-width="1.74407"/>
<path d="M193.526 435.676C197.738 442.953 214.905 445.926 227.072 432.842C227.881 431.972 227.905 430.647 227.193 429.697C226.398 428.637 224.921 428.363 223.773 429.026C214.29 434.51 208.707 435.555 205.277 433.992C201.685 432.356 201.562 427.462 202.705 423.683C208.254 405.338 224.446 397.779 228.407 393.819C229.054 393.171 229.491 392.594 229.763 392.082C231.336 389.11 225.771 388.463 222.656 389.729C208.651 395.419 185.036 421.012 193.526 435.676Z" fill="#212A31" stroke="#212A31" stroke-width="1.74407"/>
<path d="M238.868 392.947C245.449 387.682 260.826 388.988 268.892 389.397C269.697 389.437 270.373 390.016 270.531 390.807L270.668 391.495C270.899 392.648 269.942 393.713 268.766 393.716C262.656 393.735 252.907 395.477 251.076 397.307C248.983 399.4 247.588 404.865 246.716 408.644H259.16C260.937 408.644 262.359 410.118 262.294 411.894C262.23 413.648 260.741 415.006 258.986 414.986C253.377 414.92 245.592 415.402 243.865 417.705C242.588 419.408 240.682 425.73 239.392 430.992C238.529 434.511 241.598 436.991 245.043 435.868C255.308 432.523 261.52 431.438 264.556 432.029C267.09 432.523 265.453 435.542 263.155 436.721C237.428 449.923 231.298 443.539 231.02 437.421C233.81 416.492 240.612 399.051 238.868 392.947Z" fill="#212A31" stroke="#212A31" stroke-width="1.74407"/>
<path d="M270.263 441.781C275.546 451.027 297.877 435.387 306.016 428.701C301.133 427.306 286.541 432.189 279.855 434.805C278.111 421.725 291.192 392.076 290.32 389.459C289.767 387.802 286.259 387.493 283.525 387.581C282.324 387.62 281.279 388.366 280.789 389.463C273.535 405.689 266.899 435.896 270.263 441.781Z" fill="#212A31" stroke="#212A31" stroke-width="1.74407"/>
<path d="M332.178 445.269C334.213 454.424 358.148 448.079 369.587 444.168C370.695 443.789 371.42 442.745 371.42 441.574C371.42 440.191 370.402 439.031 369.02 439.001C363.515 438.881 353.344 439.812 346.569 440.558C344.822 440.75 343.3 439.6 343.442 437.848C344.478 425.035 356.761 384.766 358.339 381.61C359.467 379.355 355.354 378.467 351.894 378.209C350.514 378.106 349.258 378.934 348.726 380.211C340.452 400.075 330.495 437.695 332.178 445.269Z" fill="#212A31" stroke="#212A31" stroke-width="1.74407"/>
<path d="M376.655 438.293C374.683 450.125 399.39 440.648 409.57 434.365C410.569 433.748 410.464 432.521 409.298 432.374C404.035 431.713 392.341 433.586 386.247 434.805C384.852 433.409 387.991 421.433 389.735 415.62C394.095 415.62 403.513 415.446 406.304 414.748C408.574 414.18 408.69 411.65 408.34 409.787C408.209 409.086 407.581 408.616 406.869 408.574L394.672 407.857C393.832 407.807 393.135 407.165 393.129 406.324C393.092 401.704 395.513 397.365 397.146 395.233C397.419 394.877 397.833 394.666 398.279 394.622L413.454 393.104C414.345 393.015 415.024 392.265 415.024 391.369V389.575C415.024 388.568 414.173 387.77 413.168 387.835L390.718 389.283C389.009 389.393 387.442 390.321 386.685 391.856C380.189 405.018 378.293 428.459 376.655 438.293Z" fill="#212A31" stroke="#212A31" stroke-width="1.74407"/>
<path d="M416.764 440.909C416.764 447.885 446.122 433.351 451.645 427.828C446.841 427.828 436.093 430.413 429.3 432.245C427.996 432.596 426.785 431.416 427.121 430.107C430.472 417.046 435.948 394.204 435.948 390.331C435.948 388.142 434.438 387.368 432.664 387.211C429.791 386.956 427.489 389.324 426.597 392.068C421.161 408.794 416.764 432.914 416.764 440.909Z" fill="#212A31" stroke="#212A31" stroke-width="1.74407"/>
<path d="M461.24 392.075C473.798 386.494 487.401 386.843 492.634 387.715C494.029 389.11 492.634 391.203 491.762 392.075C486.82 392.365 476.414 393.121 474.321 393.819C472.228 394.516 469.38 403.411 468.217 407.771C471.414 407.19 478.681 407.074 482.17 407.771C485.658 408.469 485.367 411.259 484.786 413.003C478.972 413.294 466.996 414.224 465.601 415.619C464.206 417.015 462.113 428.991 461.241 434.804C473.449 434.804 476.065 431.316 487.402 431.316C461.59 446.664 453.974 441.78 453.392 437.42C452.694 426.956 461.24 404.283 461.24 392.075Z" fill="#212A31" stroke="#212A31" stroke-width="1.74407"/>
<path d="M198.611 619.389C38.5717 687.478 118.154 489.777 205.842 490.95C207.076 490.967 207.961 489.67 207.512 488.521C179.1 415.69 38.1717 553.679 85.3955 630.455C85.4412 630.529 85.496 630.605 85.5525 630.671C129.39 682.24 178.167 648.955 200.816 621.853C201.967 620.476 200.263 618.686 198.611 619.389Z" fill="#027E35" stroke="#027E35" stroke-width="3.48814"/>
<path d="M228.408 497.323L178.15 608.047C177.626 609.202 178.47 610.512 179.738 610.512H195.925C202.407 610.512 208.223 606.527 210.563 600.482L213.648 592.513C215.847 586.832 220.614 582.533 226.491 580.93L241.774 576.762C243.912 576.179 246.044 577.71 246.174 579.922L247.666 605.28C248.364 616.442 266.56 620.395 275.571 620.976L259.226 484.196C259.106 483.186 258.15 482.493 257.153 482.693L243.361 485.451C236.756 486.772 231.191 491.19 228.408 497.323Z" fill="#027E35" stroke="#027E35" stroke-width="3.48814"/>
<path d="M241.67 527.983L243.282 558.602C243.295 558.865 243.112 559.097 242.853 559.144L225.126 562.367C224.707 562.443 224.377 562.012 224.56 561.627L240.675 527.786C240.909 527.296 241.642 527.441 241.67 527.983Z" fill="white" stroke="white" stroke-width="3.48814"/>
<path d="M269.291 566.378L267.934 555.519C267.816 554.58 268.468 553.715 269.41 553.62C275.431 553.015 284.451 553.587 282.547 559.934C280.706 566.073 274.677 567.711 270.88 567.817C270.055 567.84 269.393 567.197 269.291 566.378Z" fill="#027E35" stroke="#027E35" stroke-width="3.48814"/>
<path d="M319.609 484.482C296.219 490.233 288.65 503.919 288.65 511.972C290.01 519.447 299.479 509.047 305.611 510.118C305.884 510.165 306.047 510.425 305.987 510.695C300.731 534.458 291.088 586.209 290.394 603.535C289.697 620.976 301.731 624.173 307.835 623.592C389.819 615.784 398.356 549.129 359.646 545.211C359.19 545.165 358.983 544.575 359.316 544.259C374.902 529.451 380.509 517.148 380.368 507.467C380.006 482.667 343.694 478.559 319.609 484.482Z" fill="#027E35" stroke="#027E35" stroke-width="3.48814"/>
<path d="M337.297 499.019L329.952 538.68C329.627 540.436 331.839 541.488 332.996 540.127L351.79 518.016C356.134 512.905 360.818 506.218 357.87 500.192C355.879 496.12 350.638 493.719 338.466 497.689C337.868 497.884 337.411 498.401 337.297 499.019Z" fill="white" stroke="white" stroke-width="3.48814"/>
<path d="M322.634 563.73L319.251 603.478C319.216 603.885 319.659 604.164 320.023 603.979C364.506 581.504 363.591 563.389 354.925 558.19C348.03 554.052 330.912 559.798 322.937 563.3C322.762 563.376 322.65 563.54 322.634 563.73Z" fill="white" stroke="white" stroke-width="3.48814"/>
<path d="M469.958 483.639C480.422 488.522 479.26 494.104 478.679 496.72C476.063 500.208 438.565 500.208 437.693 502.824C436.995 504.917 432.17 526.951 429.844 537.706C438.855 536.543 457.924 534.392 462.11 535.09C467.342 535.962 469.958 543.81 469.086 547.298C468.388 550.089 440.309 555.437 426.356 557.763C422.171 568.227 421.124 587.121 421.124 595.26C437.693 597.004 467.342 583.924 474.318 584.796C479.899 585.493 479.55 589.156 478.679 590.9C462.11 614.445 388.859 630.141 390.603 603.108C391.998 581.482 400.777 535.089 405.428 515.033C398.451 514.161 395.835 505.44 398.451 500.208C400.815 495.481 456.878 477.535 469.958 483.639Z" fill="#027E35"/>
<path d="M538.849 484.511C552.104 480.325 564.719 479.86 569.37 480.15L550.185 603.107C557.488 603.107 557.365 607.253 556.281 610.083C555.831 611.257 554.753 612.033 553.55 612.4C531.934 618.992 517.92 622.195 517.92 618.804C517.92 616.013 531.872 528.112 538.849 484.511Z" fill="#027E35" stroke="#027E35" stroke-width="1.74407"/>
<path d="M521.548 659.273C617.448 666.674 635.562 545.058 633.901 482.768C622.739 480.675 611.809 485.384 607.74 488C599.158 620.637 561.954 641.583 521.113 653.267C517.56 654.283 517.863 658.989 521.548 659.273Z" fill="#027E35" stroke="#027E35" stroke-width="1.74407"/>
<path d="M739.415 542.937C745.423 505.252 727.949 488.982 712.267 483.414C704.512 480.66 695.941 481.303 688.214 484.136C661.846 493.805 642.397 521.16 640.875 569.098C639.48 613.049 674.012 616.479 691.453 612.7C704.243 609.503 731.741 591.074 739.415 542.937Z" fill="#027E35" stroke="#027E35" stroke-width="1.74407"/>
<path d="M671.396 549.914C673.181 532.069 680.647 519.217 688.003 510.901C694.219 503.875 705.575 503.37 708.864 512.155C714.279 526.618 709.73 549.806 705.406 562.994C699.011 576.656 689.71 589.155 680.989 590.899C671.315 592.834 667.908 584.795 671.396 549.914Z" fill="white" stroke="white" stroke-width="1.74407"/>
<g filter="url(#filter0_f_2289_1180)">
<circle cx="524.025" cy="438.293" r="6.97627" fill="#28852C"/>
</g>
<circle cx="524.025" cy="438.293" r="6.97627" fill="#28852C"/>
<g filter="url(#filter1_f_2289_1180)">
<circle cx="558.906" cy="438.293" r="6.97627" fill="#28852C"/>
</g>
<circle cx="558.906" cy="438.293" r="6.97627" fill="#28852C"/>
<g filter="url(#filter2_f_2289_1180)">
<circle cx="593.789" cy="440.037" r="6.97627" fill="#28852C"/>
</g>
<circle cx="593.789" cy="440.037" r="6.97627" fill="#28852C"/>
<g filter="url(#filter3_f_2289_1180)">
<circle cx="630.412" cy="443.526" r="5.2322" fill="#28852C"/>
</g>
<circle cx="630.412" cy="443.526" r="5.2322" fill="#28852C"/>
<g filter="url(#filter4_f_2289_1180)">
<circle cx="667.039" cy="447.014" r="5.2322" fill="#28852C"/>
</g>
<circle cx="667.039" cy="447.014" r="5.2322" fill="#28852C"/>
<g filter="url(#filter5_f_2289_1180)">
<circle cx="705.406" cy="452.246" r="5.2322" fill="#28852C"/>
</g>
<circle cx="705.406" cy="452.246" r="5.2322" fill="#28852C"/>
<g filter="url(#filter6_f_2289_1180)">
<circle cx="745.519" cy="457.478" r="3.48814" fill="#28852C"/>
</g>
<circle cx="745.519" cy="457.478" r="3.48814" fill="#28852C"/>
<path d="M672.268 687.901C864.115 651.255 902.485 478.614 893.764 405.363C901.031 407.979 916.437 414.955 919.925 421.931C942.598 489.949 877.196 693.132 672.268 687.901Z" fill="#035B31"/>
<path d="M672.268 687.901C855.395 651.254 861.499 462.045 861.499 390.538C868.185 392.282 883.997 397.689 893.764 405.363C902.485 478.614 864.115 651.254 672.268 687.901Z" fill="#008036"/>
<path d="M672.268 687.901C879.812 598.954 802.201 459.45 852.779 388.815L861.499 390.539C861.499 462.045 855.395 651.255 672.268 687.901Z" fill="#1EA42B"/>
<path d="M852.779 388.814C802.201 459.449 879.812 598.953 672.268 687.901C886.788 565.795 728.95 373.099 852.779 388.814Z" fill="#54B915"/>
<path d="M884.174 370.479C885.046 363.503 878.941 305.949 868.477 304.205C867.763 304.086 867.062 304.021 866.373 304.004C868.477 316.413 873.709 375.711 861.354 385.396C864.617 386.924 865.374 390.625 865.861 392.28L874.581 395.768C894.115 392.28 911.497 402.454 917.311 408.849C912.428 390.013 893.185 375.421 884.174 370.479Z" fill="#008136"/>
<path d="M857.044 363.324C835.828 366.03 823.395 379.39 820.258 386.155C837.368 368.567 853.907 367.834 859.61 369.243C869.192 343.538 861.606 325.555 857.044 320.2C864.572 332.376 860.466 354.305 857.044 363.324Z" fill="#008136"/>
<path d="M858.013 368.736C841.444 366.786 823.132 378.123 818.771 387.049C841.965 381.018 854.878 382.365 861.354 385.397C873.71 375.712 868.477 316.414 866.374 304.005C858.988 303.82 853.164 309.129 851.037 312.054C868.477 331.588 862.955 357.981 858.013 368.736Z" fill="#5DC111"/>
<g opacity="0.08" filter="url(#filter7_f_2289_1180)">
<rect x="94.9844" y="492.359" width="603.448" height="111.62" fill="white"/>
</g>
</g>
<defs>
<filter id="filter0_f_2289_1180" x="515.305" y="429.573" width="17.4413" height="17.4408" filterUnits="userSpaceOnUse" color-interpolation-filters="sRGB">
<feFlood flood-opacity="0" result="BackgroundImageFix"/>
<feBlend mode="normal" in="SourceGraphic" in2="BackgroundImageFix" result="shape"/>
<feGaussianBlur stdDeviation="0.872034" result="effect1_foregroundBlur_2289_1180"/>
</filter>
<filter id="filter1_f_2289_1180" x="550.186" y="429.573" width="17.4413" height="17.4408" filterUnits="userSpaceOnUse" color-interpolation-filters="sRGB">
<feFlood flood-opacity="0" result="BackgroundImageFix"/>
<feBlend mode="normal" in="SourceGraphic" in2="BackgroundImageFix" result="shape"/>
<feGaussianBlur stdDeviation="0.872034" result="effect1_foregroundBlur_2289_1180"/>
</filter>
<filter id="filter2_f_2289_1180" x="585.068" y="431.317" width="17.4413" height="17.4408" filterUnits="userSpaceOnUse" color-interpolation-filters="sRGB">
<feFlood flood-opacity="0" result="BackgroundImageFix"/>
<feBlend mode="normal" in="SourceGraphic" in2="BackgroundImageFix" result="shape"/>
<feGaussianBlur stdDeviation="0.872034" result="effect1_foregroundBlur_2289_1180"/>
</filter>
<filter id="filter3_f_2289_1180" x="623.436" y="436.549" width="13.953" height="13.9525" filterUnits="userSpaceOnUse" color-interpolation-filters="sRGB">
<feFlood flood-opacity="0" result="BackgroundImageFix"/>
<feBlend mode="normal" in="SourceGraphic" in2="BackgroundImageFix" result="shape"/>
<feGaussianBlur stdDeviation="0.872034" result="effect1_foregroundBlur_2289_1180"/>
</filter>
<filter id="filter4_f_2289_1180" x="660.063" y="440.038" width="13.953" height="13.9525" filterUnits="userSpaceOnUse" color-interpolation-filters="sRGB">
<feFlood flood-opacity="0" result="BackgroundImageFix"/>
<feBlend mode="normal" in="SourceGraphic" in2="BackgroundImageFix" result="shape"/>
<feGaussianBlur stdDeviation="0.872034" result="effect1_foregroundBlur_2289_1180"/>
</filter>
<filter id="filter5_f_2289_1180" x="698.43" y="445.27" width="13.953" height="13.9525" filterUnits="userSpaceOnUse" color-interpolation-filters="sRGB">
<feFlood flood-opacity="0" result="BackgroundImageFix"/>
<feBlend mode="normal" in="SourceGraphic" in2="BackgroundImageFix" result="shape"/>
<feGaussianBlur stdDeviation="0.872034" result="effect1_foregroundBlur_2289_1180"/>
</filter>
<filter id="filter6_f_2289_1180" x="740.287" y="452.246" width="10.4647" height="10.4642" filterUnits="userSpaceOnUse" color-interpolation-filters="sRGB">
<feFlood flood-opacity="0" result="BackgroundImageFix"/>
<feBlend mode="normal" in="SourceGraphic" in2="BackgroundImageFix" result="shape"/>
<feGaussianBlur stdDeviation="0.872034" result="effect1_foregroundBlur_2289_1180"/>
</filter>
<filter id="filter7_f_2289_1180" x="-54.3079" y="343.067" width="902.032" height="410.205" filterUnits="userSpaceOnUse" color-interpolation-filters="sRGB">
<feFlood flood-opacity="0" result="BackgroundImageFix"/>
<feBlend mode="normal" in="SourceGraphic" in2="BackgroundImageFix" result="shape"/>
<feGaussianBlur stdDeviation="74.6461" result="effect1_foregroundBlur_2289_1180"/>
</filter>
<clipPath id="clip0_2289_1180">
<rect width="1000" height="1000" fill="white"/>
</clipPath>
</defs>
</svg>
